<svg width="60" height="60" viewBox="0 0 60 60" fill="none" xmlns="http://www.w3.org/2000/svg">
<path fill-rule="evenodd" clip-rule="evenodd" d="M59.9415 14.7249C59.9145 14.6567 59.8778 14.5929 59.832 14.5359C59.8276 14.5305 59.8238 14.5249 59.82 14.5194C59.8154 14.5126 59.8108 14.5058 59.805 14.4992C59.7578 14.4467 59.7037 14.3987 59.6415 14.3604C59.6377 14.3581 59.6337 14.3562 59.6297 14.3544C59.6277 14.3535 59.6256 14.3526 59.6236 14.3518C59.6216 14.351 59.6196 14.3502 59.6176 14.3495C59.611 14.3469 59.6044 14.3443 59.598 14.3409C59.5942 14.3391 59.5912 14.3363 59.5882 14.3334C59.5853 14.3306 59.5822 14.3278 59.5785 14.3259L30.3285 0.0759375C30.1215 -0.0253125 29.8785 -0.0253125 29.6715 0.0759375L0.4215 14.3259C0.41775 14.3278 0.41475 14.3306 0.41175 14.3334C0.40875 14.3363 0.40575 14.3391 0.402 14.3409C0.395483 14.3444 0.388809 14.347 0.382122 14.3497L0.382111 14.3497C0.37418 14.3528 0.36623 14.356 0.3585 14.3604C0.29625 14.3987 0.243 14.4459 0.195 14.4992C0.18904 14.5056 0.184288 14.5127 0.179511 14.5198C0.175871 14.5253 0.172216 14.5307 0.168 14.5359C0.12225 14.5937 0.0855 14.6567 0.0585 14.7249C0.0558926 14.7316 0.0530614 14.7382 0.0502225 14.7447C0.0457121 14.7552 0.0411823 14.7656 0.0375 14.7767C0.015 14.8479 0 14.9229 0 15.0002V44.2502C0 44.5314 0.1575 44.7894 0.40725 44.9177L29.6572 59.9177C29.6624 59.9204 29.6679 59.9211 29.6734 59.9218C29.6784 59.9224 29.6834 59.923 29.688 59.9252C29.7878 59.9702 29.8927 60.0002 30 60.0002C30.1073 60.0002 30.2122 59.9702 30.3113 59.9252C30.3137 59.924 30.3163 59.9233 30.3189 59.9228C30.3212 59.9224 30.3235 59.9221 30.3258 59.9218C30.3313 59.9211 30.3369 59.9204 30.342 59.9177L59.592 44.9177C59.8425 44.7894 60 44.5314 60 44.2502V15.0002C60 14.9229 59.985 14.8479 59.9618 14.7759C59.9583 14.7643 59.9537 14.7535 59.949 14.7427L59.9444 14.7321L59.9415 14.7249ZM30 29.1572L16.8997 22.4394L43.9597 8.38519L57.573 15.0174L30 29.1572ZM42.2805 7.56694L30 1.58419L2.427 15.0174L15.2625 21.5994L42.2805 7.56694ZM1.5 16.2279L29.25 30.4584V58.0224L1.5 43.7919V16.2279ZM30.75 58.0224L58.5 43.7919V16.2279L30.75 30.4584V58.0224Z" fill="#888888"/>
</svg>
