<svg width="61" height="60" viewBox="0 0 61 60" fill="none" xmlns="http://www.w3.org/2000/svg">
<g id="banking">
<path id="Shape" fill-rule="evenodd" clip-rule="evenodd" d="M46.1162 14.3851H40.0001V0.75C40.0001 0.335815 39.6643 0 39.2501 0H0.75C0.335815 0 0 0.335815 0 0.75V41.5001C0 41.9143 0.335815 42.2501 0.75 42.2501H3.05127V52.3202C3.05127 52.7344 3.38708 53.0702 3.80127 53.0702H8.61548C8.97437 56.9261 12.2253 59.9553 16.1733 59.9553C20.1214 59.9553 23.3727 56.9261 23.7316 53.0702H40.5231C40.882 56.9261 44.1332 59.9553 48.0813 59.9553C52.0294 59.9553 55.2803 56.9261 55.6392 53.0702H59.3632C59.7773 53.0702 60.1132 52.7344 60.1132 52.3202V28.3821C60.1132 20.6642 53.8341 14.3851 46.1162 14.3851ZM1.5 1.5H38.5001V40.7501H1.5V1.5ZM10.0796 52.3616C10.0796 55.7216 12.8134 58.4553 16.1733 58.4553C19.5337 58.4553 22.2675 55.7216 22.2675 52.3616C22.2675 49.0012 19.5337 46.2675 16.1733 46.2675C12.8134 46.2675 10.0796 49.0012 10.0796 52.3616ZM48.0813 58.4553C44.7209 58.4553 41.9872 55.7216 41.9872 52.3616C41.9872 49.0012 44.7209 46.2675 48.0813 46.2675C51.4413 46.2675 54.175 49.0012 54.175 52.3616C54.175 55.7216 51.4413 58.4553 48.0813 58.4553ZM55.6333 51.5702H58.6132V28.3821C58.6132 21.4911 53.0072 15.8851 46.1162 15.8851H40.0001V41.5001C40.0001 41.9143 39.6643 42.2501 39.2501 42.2501H4.55127V51.5702H8.62134C9.01845 47.7535 12.2534 44.7675 16.1733 44.7675C20.0933 44.7675 23.3286 47.7535 23.7257 51.5702H40.5289C40.9261 47.7535 44.1613 44.7675 48.0813 44.7675C52.0013 44.7675 55.2362 47.7535 55.6333 51.5702Z" fill="#888888"/>
<path id="Shape_2" fill-rule="evenodd" clip-rule="evenodd" d="M44.3984 19.9458H46.1171C50.8372 19.9458 54.6772 23.7859 54.6772 28.5056V31.2061C54.6772 31.6202 54.3414 31.9561 53.9272 31.9561H44.3984C43.9843 31.9561 43.6484 31.6202 43.6484 31.2061V20.6958C43.6484 20.2816 43.9843 19.9458 44.3984 19.9458ZM45.1484 30.4561H53.1772V28.5056C53.1772 24.6128 50.0099 21.4458 46.1171 21.4458H45.1484V30.4561Z" fill="#888888"/>
<path id="Path" d="M20.0818 19.6425H19.9203C18.1464 19.6425 16.7031 18.2054 16.7031 16.4392C16.7031 14.673 18.1464 13.236 19.9203 13.236C21.6946 13.236 23.1378 14.673 23.1378 16.4392C23.1378 16.8534 23.4736 17.1892 23.8878 17.1892C24.302 17.1892 24.6378 16.8534 24.6378 16.4392C24.6378 14.1008 22.9155 12.1612 20.6703 11.8012V10.7666C20.6703 10.3524 20.3345 10.0166 19.9203 10.0166C19.5061 10.0166 19.1703 10.3524 19.1703 10.7666V11.8012C16.9251 12.1612 15.2031 14.1008 15.2031 16.4392C15.2031 19.0327 17.3191 21.1425 19.9203 21.1425H20.0818C21.8557 21.1425 23.299 22.5795 23.299 24.3457C23.299 26.1119 21.8557 27.549 20.0818 27.549C18.3075 27.549 16.8643 26.1119 16.8643 24.3457C16.8643 23.9315 16.5284 23.5957 16.1143 23.5957C15.7001 23.5957 15.3643 23.9315 15.3643 24.3457C15.3643 26.6282 17.004 28.5343 19.1703 28.959V30.0187C19.1703 30.4329 19.5061 30.7687 19.9203 30.7687C20.3345 30.7687 20.6703 30.4329 20.6703 30.0187V29.0083C22.9942 28.7181 24.799 26.7401 24.799 24.3457C24.799 21.7522 22.683 19.6425 20.0818 19.6425Z" fill="#888888"/>
<path id="Shape_3" fill-rule="evenodd" clip-rule="evenodd" d="M4.83984 20.6619C4.83984 12.3016 11.6415 5.5 20.0017 5.5C28.3623 5.5 35.1639 12.3016 35.1639 20.6619C35.1639 29.0221 28.3623 35.8237 20.0017 35.8237C11.6415 35.8237 4.83984 29.0221 4.83984 20.6619ZM6.33984 20.6619C6.33984 28.1952 12.4684 34.3237 20.0017 34.3237C27.535 34.3237 33.6639 28.1952 33.6639 20.6619C33.6639 13.1285 27.535 7 20.0017 7C12.4684 7 6.33984 13.1285 6.33984 20.6619Z" fill="#888888"/>
</g>
</svg>
