<svg width="60" height="60" viewBox="0 0 60 60" fill="none" xmlns="http://www.w3.org/2000/svg">
<g id="star">
<path id="Shape" fill-rule="evenodd" clip-rule="evenodd" d="M8.99989 8.99989C14.5945 3.4053 22.0539 0.324219 29.9999 0.324219C46.3783 0.324219 59.6756 13.6215 59.6756 29.9999C59.6756 37.9458 56.5945 45.4053 50.9999 50.9999C45.4053 56.5945 37.9458 59.6756 29.9999 59.6756C13.6215 59.6756 0.324219 46.3783 0.324219 29.9999C0.324219 22.0539 3.4053 14.5945 8.99989 8.99989ZM29.9999 58.0539C37.4594 58.0539 44.5134 55.135 49.8648 49.8648C55.135 44.5134 58.0539 37.4594 58.0539 29.9999C58.0539 14.5134 45.4864 1.94584 29.9999 1.94584C22.5404 1.94584 15.4053 4.78368 10.135 10.135C4.86476 15.4864 1.94584 22.5404 1.94584 29.9999C1.94584 45.4864 14.5134 58.0539 29.9999 58.0539Z" fill="#888888"/>
<path id="Shape_2" fill-rule="evenodd" clip-rule="evenodd" d="M30.4884 10.7838L36.5695 22.6217L49.7857 24.3244C50.0701 24.3244 50.2298 24.5738 50.3741 24.7992C50.3944 24.8308 50.4144 24.862 50.4343 24.8919C50.5965 25.1352 50.5154 25.4595 50.2722 25.7027L41.0289 35.3514L43.5424 48.4865C43.6235 48.8109 43.4614 49.1352 43.2181 49.2973C42.8938 49.4595 42.5695 49.5406 42.3262 49.3784L30.4073 43.3784L18.7316 49.7838C18.5695 49.8649 18.4884 49.8649 18.3262 49.8649C18.1641 49.8649 18.0019 49.7838 17.8397 49.7027C17.5965 49.5406 17.4343 49.2163 17.5154 48.8919L19.5424 35.6757L9.81271 26.5136C9.56947 26.3514 9.48839 26.0271 9.56947 25.7027C9.65055 25.3784 9.89379 25.2163 10.2181 25.1352L23.3533 22.946L29.0289 10.8649C29.1911 10.5406 29.4343 10.3784 29.7587 10.3784C30.083 10.3784 30.3262 10.5406 30.4884 10.7838ZM39.2451 35.0271C39.2451 34.7838 39.3262 34.4595 39.4884 34.2973L48.0019 25.7027L36.0019 24.1622C35.6776 24.1622 35.5154 24 35.3533 23.7568L29.7587 12.973L24.6505 23.919C24.5695 24.1622 24.3262 24.3244 24.083 24.4054L12.083 26.3514L20.8397 34.6217C21.0019 34.7838 21.083 35.1081 21.083 35.3514L19.2992 47.3514L29.9208 41.5136C30.1641 41.4325 30.4073 41.4325 30.6505 41.5136L41.5154 46.946L39.2451 35.0271Z" fill="#888888"/>
</g>
</svg>
