<?xml version="1.0" encoding="iso-8859-1"?>
<!-- Generator: Adobe Illustrator 24.1.2, SVG Export Plug-In . SVG Version: 6.00 Build 0)  -->
<svg version="1.1" id="Layer_1" xmlns="http://www.w3.org/2000/svg" xmlns:xlink="http://www.w3.org/1999/xlink" x="0px" y="0px"
	 viewBox="0 0 631.99 666.43" style="enable-background:new 0 0 631.99 666.43;" xml:space="preserve">
<path style="fill:#FFFFFF;" d="M560.65,65C544.09,49.72,477.17,1.14,328.11,0.48c0,0-175.78-10.6-261.47,68
	C18.94,116.19,2.16,186,0.39,272.55S-3.67,521.3,152.68,565.28h0.15l-0.1,67.11c0,0-1,27.17,16.89,32.71
	c21.64,6.72,34.34-13.93,55-36.19c11.34-12.22,27-30.17,38.8-43.89c106.93,9,189.17-11.57,198.51-14.61
	c21.59-7,143.76-22.65,163.63-184.84C646.07,218.4,615.64,112.66,560.65,65z"/>
<path style="fill:#9069AE;" d="M525.88,98.77c-14-12.72-74.43-50.69-200.52-51.24c0,0-149.31-9.81-221.79,55.84
	c-40.34,39.83-53.93,99.06-55.42,171.34s-9.21,210.36,123,247.09l0,0c0,0-0.52,102.51-0.58,111.52c0,6.3,1,10.61,4.6,11.5
	c2.59,0.63,6.47-0.71,9.77-4c21.14-21.23,88.82-102.88,88.82-102.88c90.81,5.93,163.06-12,170.83-14.54
	C462.91,517.51,562,509,578.77,373.54C596.1,233.91,572.4,138.6,525.88,98.77z"/>
<path style="fill:none;stroke:#FFFFFF;stroke-width:16.86;stroke-linecap:round;stroke-linejoin:round;" d="M389.47,268.77
	c-1.64-33.06-18.433-50.423-50.38-52.09"/>
<path style="fill:none;stroke:#FFFFFF;stroke-width:16.86;stroke-linecap:round;stroke-linejoin:round;" d="M432.72,283.27
	c0.667-30.8-8.457-56.533-27.37-77.2c-19-20.74-45.3-32.16-79.05-34.63"/>
<path style="fill:none;stroke:#FFFFFF;stroke-width:16.86;stroke-linecap:round;stroke-linejoin:round;" d="M477,300.59
	c-0.407-53.447-16.377-95.54-47.91-126.28s-70.75-46.273-117.65-46.6"/>
<path style="fill:#FFFFFF;" d="M340.76,381.68c0,0,11.85,1,18.23-6.86l12.44-15.65c6-7.76,20.48-12.71,34.66-4.81
	c10.626,6.06,20.942,12.648,30.91,19.74c9.41,6.92,28.68,23,28.74,23c9.18,7.75,11.3,19.13,5.05,31.13c0,0.07-0.05,0.19-0.05,0.25
	c-6.884,11.933-15.623,22.694-25.89,31.88c-0.12,0.06-0.12,0.12-0.23,0.18c-8.92,7.453-17.683,11.69-26.29,12.71
	c-1.267,0.222-2.555,0.302-3.84,0.24c-3.795,0.037-7.571-0.544-11.18-1.72l-0.28-0.41c-13.26-3.74-35.4-13.1-72.27-33.44
	c-21.336-11.632-41.649-25.05-60.72-40.11c-9.559-7.544-18.677-15.631-27.31-24.22l-0.92-0.92l-0.92-0.92l0,0l-0.92-0.92
	c-0.31-0.3-0.61-0.61-0.92-0.92c-8.589-8.633-16.676-17.751-24.22-27.31c-15.058-19.069-28.476-39.378-40.11-60.71
	c-20.34-36.88-29.7-59-33.44-72.28l-0.41-0.28c-1.172-3.609-1.75-7.385-1.71-11.18c-0.07-1.285,0.007-2.573,0.23-3.84
	c1.073-8.593,5.317-17.363,12.73-26.31c0.06-0.11,0.12-0.11,0.18-0.23c9.183-10.267,19.945-19.003,31.88-25.88
	c0.06,0,0.18-0.06,0.25-0.06c12-6.25,23.38-4.13,31.12,5c0.06,0.06,16.11,19.33,23,28.74c7.092,9.977,13.681,20.304,19.74,30.94
	c7.9,14.17,2.95,28.68-4.81,34.66l-15.65,12.44c-7.9,6.38-6.86,18.23-6.86,18.23S254.15,359.57,340.76,381.68z"/>
</svg>
